<?xml version="1.0" encoding="UTF-8"?><svg id="a" xmlns="http://www.w3.org/2000/svg" viewBox="0 0 320 132"><rect width="320" height="132" style="fill:#ff0; stroke-width:0px;"/><path d="M25.38,58.89h-1.49c-.25,0-.38-.1-.38-.35v-20.71c0-.23.1-.35.35-.35h1.52c.23,0,.35.13.35.35v20.71c0,.23-.13.35-.35.35ZM44.9,38.82h-1.24v1.82c0,.25-.13.35-.35.35h-1.57c.05.08.08.18.08.28v2.58h2.3c.23,0,.35.1.35.35v1.29c0,.25-.13.38-.35.38h-2.3v4.43h2.61c.25,0,.35.13.35.38v1.44c0,.25-.13.35-.35.35h-2.13v5.62c0,.4-.2.58-.58.58h-11.57c-.51,0-.66-.18-.66-.58v-7.39c0-.38.15-.58.63-.58h9.47v-4.25h-9.95c-.25,0-.35-.13-.35-.38v-1.29c0-.25.1-.35.33-.35h9.97v-2.58c0-.3.13-.43.43-.43h1.37c.05,0,.1.03.15.03-.05-.05-.08-.13-.08-.23v-1.7c0-.23.1-.35.35-.35h1.24s-.02-.05-.02-.13v-1.7c0-.25.13-.38.38-.38h1.49c.23,0,.35.15.35.38v1.7c0,.25-.13.35-.35.35ZM40.01,39.83h-10.45c-.18,0-.28-.13-.28-.35v-1.44c0-.23.1-.35.33-.35h10.48c.23,0,.35.13.35.38v1.39c0,.25-.13.38-.43.38ZM40.01,51.93h-8.35v4.89h8.35v-4.89Z" style="fill:#000; stroke-width:0px;"/><path d="M68.21,59.43h-1.54c-.25,0-.35-.1-.35-.33v-1.37h-17.01c-.38,0-.61-.13-.61-.61v-17.34c0-.38.18-.58.56-.58h16.96v-2.03c0-.25.13-.38.38-.38h1.54c.23,0,.35.15.35.38v3.7c0,.41-.2.58-.58.58h-16.94v14.07h17.01c.38,0,.58.2.58.58v2.96c0,.25-.13.35-.35.35Z" style="fill:#000; stroke-width:0px;"/><path d="M93.88,58.67h-4.68c-.23,0-.35-.1-.35-.35v-1.52c0-.23.1-.35.35-.35h2.99v-15.8h-16.05v15.8h6.46v-13.85c0-.3.13-.43.46-.43h1.22c.33,0,.48.15.48.46v15.47c0,.41-.23.58-.63.58h-9.7c-.4,0-.58-.18-.58-.58v-19.06c0-.38.13-.63.66-.63h19.34c.48,0,.66.25.66.63v19.04c0,.41-.2.61-.61.61Z" style="fill:#000; stroke-width:0px;"/><path d="M119.85,41.3h-17.37v17.24c0,.25-.13.35-.35.35h-1.57c-.25,0-.35-.1-.35-.35v-17.24h-1.7c-.23,0-.35-.1-.35-.35v-1.52c0-.23.1-.35.33-.35h1.72v-1.82c0-.23.1-.35.35-.35h1.57c.23,0,.35.13.35.35v1.82h17.39c.25,0,.35.13.35.35v1.52c0,.25-.1.35-.38.35ZM119.44,47.76h-12.89c-.25,0-.35-.1-.35-.35v-1.52c0-.23.1-.35.33-.35h12.91c.23,0,.35.13.35.35v1.52c0,.25-.13.35-.35.35ZM119.72,58.64h-12.88c-.41,0-.61-.15-.61-.63v-5.7c0-.23.08-.35.35-.35h1.62c.25,0,.35.13.35.38v4.1h11.19c.23,0,.38.13.38.38v1.47c0,.25-.15.35-.4.35Z" style="fill:#000; stroke-width:0px;"/><path d="M145.16,58.72h-20.07c-.4,0-.61-.13-.61-.63v-14.56c0-.48.2-.66.61-.66h5.11v-5.65c0-.25.1-.38.35-.38h1.67c.23,0,.35.13.35.38v5.65h12.25c.25,0,.38.13.38.35v1.44c0,.3-.13.43-.46.43h-17.92v11.44h18.35c.23,0,.35.13.35.35v1.47c0,.25-.13.35-.38.35ZM146.2,38.82h-1.52c-.23,0-.35-.1-.35-.35v1.32c0,.23-.15.35-.35.35h-1.52c-.23,0-.35-.13-.35-.35v-1.72c0-.23.13-.35.35-.35h1.52c.23,0,.35.13.35.35v-1.32c0-.23.13-.35.35-.35h1.52c.23,0,.35.13.35.35v1.72c0,.23-.15.35-.35.35Z" style="fill:#000; stroke-width:0px;"/><path d="M156.72,52.08h-6.02c-.38,0-.53-.18-.53-.56v-13.31c0-.23.08-.35.33-.35h1.6c.23,0,.35.15.35.38v11.59h4.28c.23,0,.35.1.35.35v1.54c0,.23-.13.35-.35.35ZM169.08,58.69h-17.06c-.25,0-.38-.1-.38-.35v-1.54c0-.23.13-.35.38-.35h15.39v-16.33h-6.53c-.23,0-.35-.13-.35-.38v-1.52c0-.23.1-.35.35-.35h8.28c.38,0,.58.2.58.58v19.62c0,.46-.25.63-.66.63Z" style="fill:#000; stroke-width:0px;"/><path d="M194.89,58.69h-14.48c-.25,0-.38-.1-.38-.38v-1.52c0-.23.13-.35.35-.35h12.83v-14.35h-18.43c-.4,0-.58-.18-.58-.58v-3.27c0-.23.1-.35.35-.35h1.59c.23,0,.38.13.38.35v1.57h18.35c.48,0,.63.25.63.63v17.62c0,.41-.15.63-.63.63Z" style="fill:#000; stroke-width:0px;"/><path d="M220.08,59.43h-1.54c-.25,0-.35-.1-.35-.33v-1.37h-17.01c-.38,0-.61-.13-.61-.61v-17.34c0-.38.18-.58.56-.58h16.96v-2.03c0-.25.13-.38.38-.38h1.54c.23,0,.35.15.35.38v3.7c0,.41-.2.58-.58.58h-16.94v14.07h17.01c.38,0,.58.2.58.58v2.96c0,.25-.13.35-.35.35Z" style="fill:#000; stroke-width:0px;"/><path d="M227.87,58.89h-1.49c-.23,0-.35-.1-.35-.35v-20.68c0-.23.1-.35.35-.35h1.49c.25,0,.38.13.38.35v20.68c0,.23-.13.35-.38.35ZM242.02,41.45h-10.08c-.23,0-.35-.13-.35-.35v-1.52c0-.25.13-.38.33-.38h10.1c.25,0,.35.13.35.38v1.52c0,.23-.13.35-.35.35ZM246.76,50.64h-1.54v7.47c0,.4-.2.58-.58.58h-12c-.51,0-.66-.23-.66-.61v-9.19c0-.38.15-.63.63-.63h10.25v-6.61c0-.25.13-.38.35-.38h1.42c.35,0,.51.18.51.53v6.51h1.62c.23,0,.35.13.35.38v1.59c0,.25-.13.35-.35.35ZM242.94,50.39h-8.86v6.13h8.86v-6.13ZM247.47,38.87h-1.49c-.25,0-.38-.1-.38-.35v1.37c0,.23-.13.35-.35.35h-1.49c-.25,0-.38-.13-.38-.35v-1.72c0-.25.13-.38.38-.38h1.49c.23,0,.35.15.35.38v-1.37c0-.23.13-.35.38-.35h1.49c.23,0,.35.15.35.38v1.7c0,.25-.13.35-.35.35Z" style="fill:#000; stroke-width:0px;"/><path d="M270.83,58.67h-18.4c-.38,0-.66-.15-.66-.63v-20.53c0-.23.1-.35.38-.35h1.57c.25,0,.35.13.35.35v18.94h15.04v-10.76c0-.23.1-.35.35-.35h1.59c.23,0,.35.15.35.35v12.4c0,.41-.2.58-.58.58Z" style="fill:#000; stroke-width:0px;"/><path d="M295.38,44.69h-3.92v3.95h3.9c.2,0,.33.1.33.33v1.42c0,.23-.13.33-.35.33h-3.57v7.49c0,.38-.18.53-.53.53h-12.4c-.46,0-.63-.15-.63-.53v-9.29c0-.35.18-.53.61-.53h10.56v-7.11c0-.2.13-.33.33-.33h1.42c.23,0,.35.13.35.33v1.44h3.95c.2,0,.33.13.33.33v1.32c0,.23-.13.33-.35.33ZM289.58,50.41h-9.21v6.35h9.21v-6.35Z" style="fill:#000; stroke-width:0px;"/><path d="M45.65,93.06l-6.3,6.3h-7.85l-6.7-6.7v-13.94h7.24v4.59l4.59-4.59h11.57v6.3h-16.16v8.04h6.41v2.12l2.12-2.12h1.48l-3.6,3.6v2.12l5.72-5.72h1.48ZM28.89,79.12h-.95l.47.47.47-.47ZM30.9,88.19c0-.1-.08-.18-.18-.18s-.18.08-.18.18.08.18.18.18.18-.08.18-.18ZM30.9,89.04c0-.1-.08-.18-.18-.18s-.18.08-.18.18.08.18.18.18.18-.08.18-.18ZM30.9,89.89c0-.1-.08-.18-.18-.18s-.18.08-.18.18.08.18.18.18.18-.08.18-.18ZM31.58,87.63c-.07-.07-.19-.07-.26,0-.07.07-.07.19,0,.26.07.07.19.07.26,0,.07-.07.07-.19,0-.26ZM31.58,88.48c-.07-.07-.19-.07-.26,0-.07.07-.07.19,0,.26.07.07.19.07.26,0,.07-.07.07-.19,0-.26ZM31.58,89.33c-.07-.07-.19-.07-.26,0-.07.07-.07.19,0,.26.07.07.19.07.26,0,.07-.07.07-.19,0-.26ZM31.58,90.18c-.07-.07-.19-.07-.26,0-.07.07-.07.19,0,.26.07.07.19.07.26,0,.07-.07.07-.19,0-.26ZM55.91,82.4v16.96h-7.24v-2.12l-2.12,2.12h-1.48l3.6-3.6v-2.12l-5.72,5.72h-1.48l6.3-6.3h.9v-14.35h3.56c2.04,0,3.69,1.65,3.69,3.69ZM47.64,79.15c0,.06.05.11.11.11s.11-.05.11-.11-.05-.11-.11-.11-.11.05-.11.11ZM47.64,84.58c0,.06.05.11.11.11s.11-.05.11-.11-.05-.11-.11-.11-.11.05-.11.11ZM49.22,79.15c0-.06-.05-.11-.11-.11s-.11.05-.11.11.05.11.11.11.11-.05.11-.11ZM49.22,84.58c0-.06-.05-.11-.11-.11s-.11.05-.11.11.05.11.11.11.11-.05.11-.11ZM55.51,88.56l-.47.47.47.47v-.95Z" style="fill:#000; stroke-width:0px;"/><path d="M82.62,85.89l6.7,6.7v6.77h-7.24v-9.3l-2.12,2.12h-1.48l3.6-3.6v-2.12l-5.72,5.72h-1.48l6.3-6.3h-2.12l-6.3,6.3h-7.31v7.17h-7.24v-13.87h7.24v4.99l4.59-4.59h1.83v2.12l2.12-2.12h1.39v-2.18l4.99-4.99h8.95v6.3h-6.7v.87h0ZM65.45,85.01h-7.24v-6.3h7.24v6.3ZM58.76,84.58c0-.06-.05-.11-.11-.11s-.11.05-.11.11.05.11.11.11.11-.05.11-.11ZM58.76,85.93c0-.06-.05-.11-.11-.11s-.11.05-.11.11.05.11.11.11.11-.05.11-.11ZM62.3,98.96l-.47-.47-.47.47h.95ZM65.13,84.58c0-.06-.05-.11-.11-.11s-.11.05-.11.11.05.11.11.11.11-.05.11-.11ZM65.13,85.93c0-.06-.05-.11-.11-.11s-.11.05-.11.11.05.11.11.11.11-.05.11-.11ZM77.59,85.89h-2.12l-3.6,3.6v2.12l5.72-5.72ZM82.8,94.37c-.07-.07-.19-.07-.26,0-.07.07-.07.19,0,.26.07.07.19.07.26,0,.07-.07.07-.19,0-.26ZM82.8,95.22c-.07-.07-.19-.07-.26,0-.07.07-.07.19,0,.26.07.07.19.07.26,0,.07-.07.07-.19,0-.26ZM82.8,96.07c-.07-.07-.19-.07-.26,0-.07.07-.07.19,0,.26.07.07.19.07.26,0,.07-.07.07-.19,0-.26ZM82.8,96.92c-.07-.07-.19-.07-.26,0-.07.07-.07.19,0,.26.07.07.19.07.26,0,.07-.07.07-.19,0-.26ZM83.59,94.92c0-.1-.08-.18-.18-.18s-.18.08-.18.18.08.18.18.18.18-.08.18-.18ZM83.59,95.77c0-.1-.08-.18-.18-.18s-.18.08-.18.18.08.18.18.18.18-.08.18-.18ZM83.59,96.62c0-.1-.08-.18-.18-.18s-.18.08-.18.18.08.18.18.18.18-.08.18-.18ZM88.45,81.86l.47.47v-.95l-.47.47Z" style="fill:#000; stroke-width:0px;"/><path d="M98.19,88.8h-7.24v-10.09h7.24v4.59l4.59-4.59h1.83v2.12l2.12-2.12h1.48l-3.6,3.6v2.12l5.72-5.72h1.48l-6.3,6.3h-7.31v3.79ZM98.19,93.06h16.63v6.3h-17.17l-6.7-6.7v-3.38h7.24v3.79ZM91.5,88.36c0-.06-.05-.11-.11-.11s-.11.05-.11.11.05.11.11.11.11-.05.11-.11ZM91.5,89.71c0-.06-.05-.11-.11-.11s-.11.05-.11.11.05.11.11.11.11-.05.11-.11ZM95.04,79.12h-.95l.47.47.47-.47ZM97.86,88.36c0-.06-.05-.11-.11-.11s-.11.05-.11.11.05.11.11.11.11-.05.11-.11ZM97.86,89.71c0-.06-.05-.11-.11-.11s-.11.05-.11.11.05.11.11.11.11-.05.11-.11ZM114.82,78.71v.58l-5.72,5.72h-1.48l6.3-6.3h.9ZM108.31,93.77c.07.07.19.07.26,0,.07-.07.07-.19,0-.26-.07-.07-.19-.07-.26,0-.07.07-.07.19,0,.26ZM108.68,94.38c0,.1.08.18.18.18s.18-.08.18-.18-.08-.18-.18-.18-.18.08-.18.18ZM109.16,93.77c.07.07.19.07.26,0,.07-.07.07-.19,0-.26-.07-.07-.19-.07-.26,0-.07.07-.07.19,0,.26ZM109.53,94.38c0,.1.08.18.18.18s.18-.08.18-.18-.08-.18-.18-.18-.18.08-.18.18ZM110.01,93.77c.07.07.19.07.26,0,.07-.07.07-.19,0-.26-.07-.07-.19-.07-.26,0-.07.07-.07.19,0,.26ZM110.38,94.38c0,.1.08.18.18.18s.18-.08.18-.18-.08-.18-.18-.18-.18.08-.18.18ZM110.86,93.77c.07.07.19.07.26,0,.07-.07.07-.19,0-.26-.07-.07-.19-.07-.26,0-.07.07-.07.19,0,.26ZM111.22,85.01l3.6-3.6v1.47l-2.12,2.12h-1.48Z" style="fill:#000; stroke-width:0px;"/><path d="M123.28,85.01v4.87h-7.24v-4.47l6.7-6.7h16.7v6.3h-16.16ZM123.24,93.06l-6.3,6.3h-.9v-.58l5.72-5.72h1.48ZM116.04,95.18l2.12-2.12h1.48l-3.6,3.6v-1.47ZM141.63,87.13l5.53,5.53v3.02c0,2.04-1.65,3.69-3.69,3.69h-17.21v-2.12l-2.12,2.12h-1.48l3.6-3.6v-2.12l-5.72,5.72h-1.48l6.3-6.3h14.55v-5.93h1.71ZM130.2,84.56c.07.07.19.07.26,0,.07-.07.07-.19,0-.26-.07-.07-.19-.07-.26,0-.07.07-.07.19,0,.26ZM130.57,83.69c0,.1.08.18.18.18s.18-.08.18-.18-.08-.18-.18-.18-.18.08-.18.18ZM131.05,84.56c.07.07.19.07.26,0,.07-.07.07-.19,0-.26-.07-.07-.19-.07-.26,0-.07.07-.07.19,0,.26ZM131.42,83.69c0,.1.08.18.18.18s.18-.08.18-.18-.08-.18-.18-.18-.18.08-.18.18ZM131.9,84.56c.07.07.19.07.26,0,.07-.07.07-.19,0-.26-.07-.07-.19-.07-.26,0-.07.07-.07.19,0,.26ZM132.27,83.69c0,.1.08.18.18.18s.18-.08.18-.18-.08-.18-.18-.18-.18.08-.18.18ZM132.75,84.56c.07.07.19.07.26,0,.07-.07.07-.19,0-.26-.07-.07-.19-.07-.26,0-.07.07-.07.19,0,.26ZM138.89,79.15c0,.06.05.11.11.11s.11-.05.11-.11-.05-.11-.11-.11-.11.05-.11.11ZM138.89,84.58c0,.06.05.11.11.11s.11-.05.11-.11-.05-.11-.11-.11-.11.05-.11.11ZM140.15,98.96l-.47-.47-.47.47h.95ZM147.16,78.71v6.3h-7.24v-6.3h7.24ZM140.47,79.15c0-.06-.05-.11-.11-.11s-.11.05-.11.11.05.11.11.11.11-.05.11-.11ZM140.47,84.58c0-.06-.05-.11-.11-.11s-.11.05-.11.11.05.11.11.11.11-.05.11-.11ZM146.76,81.39l-.47.47.47.47v-.95Z" style="fill:#000; stroke-width:0px;"/><path d="M180.22,92.59v6.77h-7.24v-9.3l-2.12,2.12h-1.48l3.6-3.6v-2.12l-5.72,5.72h-1.47l6.3-6.3h-2.12l-6.3,6.3h-7.31v7.17h-7.24v-13.87h7.24v4.99l4.59-4.59h1.83v2.12l2.12-2.12h1.39v-2.18l4.99-4.99h8.95v6.3h-6.7v.87l6.7,6.7ZM156.35,85.01h-7.24v-6.3h7.24v6.3ZM149.66,84.58c0-.06-.05-.11-.11-.11s-.11.05-.11.11.05.11.11.11.11-.05.11-.11ZM149.66,85.93c0-.06-.05-.11-.11-.11s-.11.05-.11.11.05.11.11.11.11-.05.11-.11ZM153.2,98.96l-.47-.47-.47.47h.95ZM156.02,84.58c0-.06-.05-.11-.11-.11s-.11.05-.11.11.05.11.11.11.11-.05.11-.11ZM156.02,85.93c0-.06-.05-.11-.11-.11s-.11.05-.11.11.05.11.11.11.11-.05.11-.11ZM168.48,85.89h-2.12l-3.6,3.6v2.12l5.72-5.72ZM173.69,94.37c-.07-.07-.19-.07-.26,0-.07.07-.07.19,0,.26.07.07.19.07.26,0s.07-.19,0-.26ZM173.69,95.22c-.07-.07-.19-.07-.26,0-.07.07-.07.19,0,.26.07.07.19.07.26,0s.07-.19,0-.26ZM173.69,96.07c-.07-.07-.19-.07-.26,0-.07.07-.07.19,0,.26.07.07.19.07.26,0s.07-.19,0-.26ZM173.69,96.92c-.07-.07-.19-.07-.26,0-.07.07-.07.19,0,.26.07.07.19.07.26,0s.07-.19,0-.26ZM174.48,94.92c0-.1-.08-.18-.18-.18s-.18.08-.18.18.08.18.18.18.18-.08.18-.18ZM174.48,95.77c0-.1-.08-.18-.18-.18s-.18.08-.18.18.08.18.18.18.18-.08.18-.18ZM174.48,96.62c0-.1-.08-.18-.18-.18s-.18.08-.18.18.08.18.18.18.18-.08.18-.18ZM179.34,81.86l.47.47v-.95l-.47.47Z" style="fill:#000; stroke-width:0px;"/><path d="M189.2,93.06v6.3h-7.24v-6.3h7.24ZM186.05,93.46h-.95l.47.47.47-.47Z" style="fill:#000; stroke-width:0px;"/><path d="M198.08,93.06h17.1v6.3h-17.64l-6.7-6.7v-10.26c0-2.04,1.65-3.69,3.69-3.69h3.56v2.12l2.12-2.12h1.47l-3.6,3.6v2.12l5.72-5.72h1.47l-6.3,6.3h-.9v8.04ZM196.94,88.19c0-.1-.08-.18-.18-.18s-.18.08-.18.18.08.18.18.18.18-.08.18-.18ZM196.94,89.04c0-.1-.08-.18-.18-.18s-.18.08-.18.18.08.18.18.18.18-.08.18-.18ZM196.94,89.89c0-.1-.08-.18-.18-.18s-.18.08-.18.18.08.18.18.18.18-.08.18-.18ZM197.62,87.63c-.07-.07-.19-.07-.26,0-.07.07-.07.19,0,.26.07.07.19.07.26,0s.07-.19,0-.26ZM197.62,88.48c-.07-.07-.19-.07-.26,0-.07.07-.07.19,0,.26s.19.07.26,0c.07-.07.07-.19,0-.26ZM197.62,89.33c-.07-.07-.19-.07-.26,0-.07.07-.07.19,0,.26s.19.07.26,0c.07-.07.07-.19,0-.26ZM197.62,90.18c-.07-.07-.19-.07-.26,0-.07.07-.07.19,0,.26s.19.07.26,0c.07-.07.07-.19,0-.26ZM221.95,78.71v6.3h-13.66v-2.12l-2.12,2.12h-1.47l3.6-3.6v-2.12l-5.72,5.72h-1.47l6.3-6.3h14.55ZM202.71,98.96h.95l-.47-.47-.47.47ZM214.62,93.5c0,.06.05.11.11.11s.11-.05.11-.11-.05-.11-.11-.11-.11.05-.11.11ZM214.62,98.92c0,.06.05.11.11.11s.11-.05.11-.11-.05-.11-.11-.11-.11.05-.11.11ZM215.65,93.06h6.3v6.3h-6.3v-6.3ZM215.97,93.5c0,.06.05.11.11.11s.11-.05.11-.11-.05-.11-.11-.11-.11.05-.11.11ZM215.97,98.92c0,.06.05.11.11.11s.11-.05.11-.11-.05-.11-.11-.11-.11.05-.11.11ZM221.55,81.39l-.47.47.47.47v-.95Z" style="fill:#0000ac; stroke-width:0px;"/><path d="M237.95,93.06l-6.3,6.3h-8.14v-13.94l6.7-6.7h16.7v6.3h-16.16v10.17l2.12-2.12h1.48l-3.6,3.6v2.12l5.72-5.72h1.48ZM229.62,88.19c0-.1-.08-.18-.18-.18s-.18.08-.18.18.08.18.18.18.18-.08.18-.18ZM229.62,89.04c0-.1-.08-.18-.18-.18s-.18.08-.18.18.08.18.18.18.18-.08.18-.18ZM229.62,89.89c0-.1-.08-.18-.18-.18s-.18.08-.18.18.08.18.18.18.18-.08.18-.18ZM230.3,87.63c-.07-.07-.19-.07-.26,0s-.07.19,0,.26.19.07.26,0c.07-.07.07-.19,0-.26ZM230.3,88.48c-.07-.07-.19-.07-.26,0s-.07.19,0,.26c.07.07.19.07.26,0,.07-.07.07-.19,0-.26ZM230.3,89.33c-.07-.07-.19-.07-.26,0s-.07.19,0,.26c.07.07.19.07.26,0,.07-.07.07-.19,0-.26ZM230.3,90.18c-.07-.07-.19-.07-.26,0s-.07.19,0,.26c.07.07.19.07.26,0,.07-.07.07-.19,0-.26ZM254.63,78.71v16.96c0,2.04-1.65,3.69-3.69,3.69h-9.97v-2.12l-2.12,2.12h-1.48l3.6-3.6v-2.12l-5.72,5.72h-1.48l6.3-6.3h7.31v-14.35h7.24ZM246.36,79.15c0,.06.05.11.11.11s.11-.05.11-.11-.05-.11-.11-.11-.11.05-.11.11ZM246.36,84.58c0,.06.05.11.11.11s.11-.05.11-.11-.05-.11-.11-.11-.11.05-.11.11ZM247.94,79.15c0-.06-.05-.11-.11-.11s-.11.05-.11.11.05.11.11.11.11-.05.11-.11ZM247.94,84.58c0-.06-.05-.11-.11-.11s-.11.05-.11.11.05.11.11.11.11-.05.11-.11ZM254.22,88.56l-.47.47.47.47v-.95Z" style="fill:#0000ac; stroke-width:0px;"/><path d="M279.31,88.8h-7.24v-3.79h-8.32v14.35h-7.24v-13.94l6.7-6.7h10.57v4.99l4.99-4.99h.54v1.12l1.12-1.12h1.47l-2.59,2.59v2.12l4.72-4.72h1.47l-6.19,6.19v3.89ZM262.62,94.92c0-.1-.08-.18-.18-.18s-.18.08-.18.18.08.18.18.18.18-.08.18-.18ZM262.62,95.77c0-.1-.08-.18-.18-.18s-.18.08-.18.18.08.18.18.18.18-.08.18-.18ZM262.62,96.62c0-.1-.08-.18-.18-.18s-.18.08-.18.18.08.18.18.18.18-.08.18-.18ZM263.3,94.37c-.07-.07-.19-.07-.26,0s-.07.19,0,.26.19.07.26,0,.07-.19,0-.26ZM263.3,95.22c-.07-.07-.19-.07-.26,0s-.07.19,0,.26.19.07.26,0,.07-.19,0-.26ZM263.3,96.07c-.07-.07-.19-.07-.26,0s-.07.19,0,.26.19.07.26,0,.07-.19,0-.26ZM263.3,96.92c-.07-.07-.19-.07-.26,0s-.07.19,0,.26.19.07.26,0,.07-.19,0-.26ZM272.07,89.27h7.24v10.09h-7.24v-10.09ZM272.62,88.36c0-.06-.05-.11-.11-.11s-.11.05-.11.11.05.11.11.11.11-.05.11-.11ZM272.4,89.71c0,.06.05.11.11.11s.11-.05.11-.11-.05-.11-.11-.11-.11.05-.11.11ZM275.22,98.96h.95l-.47-.47-.47.47ZM278.99,88.36c0-.06-.05-.11-.11-.11s-.11.05-.11.11.05.11.11.11.11-.05.11-.11ZM278.76,89.71c0,.06.05.11.11.11s.11-.05.11-.11-.05-.11-.11-.11-.11.05-.11.11ZM291.18,78.71c2.04,0,3.69,1.65,3.69,3.69v16.96h-7.24v-15.57l-1.23,1.23h-1.47l2.7-2.7v-2.12l-4.83,4.83h-1.47l6.3-6.3h3.56ZM294.47,88.56l-.47.47.47.47v-.95Z" style="fill:#0000ac; stroke-width:0px;"/></svg>