<?xml version="1.0" encoding="UTF-8"?><svg id="a" xmlns="http://www.w3.org/2000/svg" viewBox="0 0 512 512"><rect width="512" height="512" style="fill:#ff0; stroke-width:0px;"/><path d="M46.04,231.16h-14.16c-2.4,0-4.64-.96-4.64-3.36V40.48c0-2.16,2-3.36,4.4-3.36h14.4c2.16,0,3.36,1.2,3.36,3.36v187.33c0,2.16-1.2,3.36-3.36,3.36ZM231.08,49.84h-11.76v17.28c0,2.4-1.2,3.36-3.36,3.36h-14.88c.48.72.72,1.68.72,2.64v24.48h21.84c2.16,0,3.36.96,3.36,3.36v12.24c0,2.4-1.2,3.6-3.36,3.6h-21.84v42h24.72c2.4,0,3.36,1.2,3.36,3.6v13.68c0,2.4-1.2,3.36-3.36,3.36h-20.16v44.28c0,3.84-1.92,5.52-5.52,5.52h-109.68c-4.8,0-6.24-1.68-6.24-5.52v-61.08c0-3.6,1.44-5.52,6-5.52h89.76v-40.32h-94.32c-2.4,0-3.36-1.2-3.36-3.6v-12.24c0-2.4.96-3.36,3.12-3.36h94.56v-24.48c0-2.88,1.2-4.08,4.08-4.08h12.96c.48,0,.96.24,1.44.24-.48-.48-.72-1.2-.72-2.16v-16.08c0-2.16.96-3.36,3.36-3.36h11.76c0-.24-.24-.48-.24-1.2v-16.08c0-2.4,1.2-3.6,3.6-3.6h14.16c2.16,0,3.36,1.44,3.36,3.6v16.08c0,2.4-1.2,3.36-3.36,3.36ZM184.76,59.44h-99.12c-1.68,0-2.64-1.2-2.64-3.36v-13.68c0-2.16.96-3.36,3.12-3.36h99.36c2.16,0,3.36,1.2,3.36,3.6v13.2c0,2.4-1.2,3.6-4.08,3.6ZM184.76,174.16h-79.2v37.32h79.2v-37.32Z" style="fill:#000; stroke-width:0px;"/><path d="M223.32,478.24H86.04c-2.4,0-3.6-.96-3.6-3.6v-14.4c0-2.16,1.2-3.36,3.36-3.36h121.68v-136.08H32.76c-3.84,0-5.52-1.68-5.52-5.52v-90.96c0-2.16.96-3.36,3.36-3.36h15.12c2.16,0,3.6,1.2,3.6,3.36v74.88h174c4.56,0,6,2.4,6,6v167.04c0,3.84-1.44,6-6,6Z" style="fill:#000; stroke-width:0px;"/><path d="M481.12,245.2h-14.64c-2.4,0-3.36-.96-3.36-3.12v-12.96h-180.28c-3.6,0-5.76-1.2-5.76-5.76V58.96c0-3.6,1.68-5.52,5.28-5.52h160.8v-19.2c0-2.4,1.2-3.6,3.6-3.6h14.64c2.16,0,3.36,1.44,3.36,3.6v35.04c0,3.84-1.92,5.52-5.52,5.52h-160.56v133.44h180.28c3.6,0,5.8,1.92,5.8,5.52v28.08c0,2.4-1.48,3.36-3.64,3.36Z" style="fill:#000; stroke-width:0px;"/><path d="M462.12,485.2h-14.64c-2.4,0-3.36-.96-3.36-3.12v-12.96h-161.28c-3.6,0-5.76-1.2-5.76-5.76v-158.4c0-3.6,1.68-5.52,5.28-5.52h180.8v-59.2c0-2.4,1.2-3.6,3.6-3.6h14.64c2.16,0,3.36,1.44,3.36,3.6v75.04c0,3.84-1.92,5.52-5.52,5.52h-180.56v127.44h161.28c3.6,0,5.52,1.92,5.52,5.52v28.08c0,2.4-1.2,3.36-3.36,3.36Z" style="fill:#000; stroke-width:0px;"/><path d="M117.9,272.82v-9.24h17.68v24.62h-59.6l-16.36-16.37v-34.04h17.68v11.2l11.2-11.2h4.46v5.18l5.18-5.18h3.6l-8.79,8.79v5.18l13.97-13.97h3.6l-15.38,15.38h-17.85v19.64h40.6ZM69.61,238.78h-2.31l1.15,1.15,1.15-1.15ZM74.52,260.93c0-.25-.2-.45-.45-.45s-.45.2-.45.45.2.45.45.45.45-.2.45-.45ZM74.52,263c0-.25-.2-.45-.45-.45s-.45.2-.45.45.2.45.45.45.45-.2.45-.45ZM74.52,265.07c0-.25-.2-.45-.45-.45s-.45.2-.45.45.2.45.45.45.45-.2.45-.45ZM76.19,259.57c-.17-.18-.46-.18-.63,0-.17.17-.17.46,0,.63.17.17.46.17.63,0,.17-.17.17-.46,0-.63ZM76.19,261.65c-.17-.17-.46-.17-.63,0-.17.17-.17.46,0,.63.17.17.46.17.63,0,.17-.17.17-.46,0-.63ZM76.19,263.72c-.17-.17-.46-.17-.63,0-.17.17-.17.46,0,.63.17.17.46.17.63,0,.17-.17.17-.46,0-.63ZM76.19,265.8c-.17-.17-.46-.17-.63,0-.17.17-.17.46,0,.63.17.17.46.17.63,0s.17-.46,0-.63ZM135.58,246.8v15.62h-17.68v-14.43l-5.18,5.18h-3.6l8.79-8.79v-5.18l-13.97,13.97h-3.6l15.38-15.38h10.87c4.97,0,9,4.03,9,9ZM106.59,287.22l-1.15-1.15-1.15,1.15h2.31ZM118.7,264.65c0,.15.12.28.28.28s.28-.12.28-.28-.12-.28-.28-.28-.28.12-.28.28ZM119.25,261.35c0-.15-.12-.28-.28-.28s-.28.12-.28.28.12.28.28.28.28-.12.28-.28ZM134.23,264.65c0,.15.12.28.28.28s.28-.12.28-.28-.12-.28-.28-.28-.28.12-.28.28ZM134.79,261.35c0-.15-.12-.28-.28-.28s-.28.12-.28.28.12.28.28.28.28-.12.28-.28Z" style="fill:#000; stroke-width:0px;"/><path d="M176.45,255.31l-15.38,15.38h-2.19v17.51h-17.68v-50.4h17.68v22.7l5.18-5.19h3.6l-8.79,8.79v5.18l13.97-13.97h3.6ZM151.19,238.78h-2.31l1.15,1.15,1.15-1.15ZM156.1,277.37c0-.25-.2-.45-.45-.45s-.45.2-.45.45.2.45.45.45.45-.2.45-.45ZM156.1,279.45c0-.25-.2-.45-.45-.45s-.45.2-.45.45.2.45.45.45.45-.2.45-.45ZM156.1,281.52c0-.25-.2-.45-.45-.45s-.45.2-.45.45.2.45.45.45.45-.2.45-.45ZM157.76,276.02c-.17-.17-.46-.17-.63,0-.17.18-.17.46,0,.63.17.17.46.17.63,0,.17-.17.17-.46,0-.63ZM157.76,278.09c-.17-.17-.46-.17-.63,0-.17.18-.17.46,0,.63.17.17.46.17.63,0,.17-.17.17-.46,0-.63ZM157.76,280.17c-.17-.17-.46-.17-.63,0-.17.17-.17.46,0,.63.17.17.46.17.63,0,.17-.17.17-.46,0-.63ZM157.76,282.24c-.17-.17-.46-.17-.63,0-.17.17-.17.46,0,.63.17.17.46.17.63,0,.17-.18.17-.46,0-.63ZM217.16,271.67v16.53h-17.68v-17.51h-16.36v-4.48l-4.48,4.48h-3.6l8.08-8.08v-5.18l-13.27,13.27h-3.6l15.38-15.38h1.48v-5.33l12.18-12.18h5.49v17.51l16.36,16.36ZM200,238.87c0-.15-.12-.28-.28-.28s-.28.12-.28.28.12.28.28.28.28-.12.28-.28ZM200,252.11c0-.15-.12-.28-.28-.28s-.28.12-.28.28.12.28.28.28.28-.12.28-.28ZM217.16,253.18h-15.21v-15.38h15.21v15.38ZM203.3,238.87c0-.15-.12-.28-.28-.28s-.28.12-.28.28.12.28.28.28.28-.12.28-.28ZM203.3,252.11c0-.15-.12-.28-.28-.28s-.28.12-.28.28.12.28.28.28.28-.12.28-.28ZM209.47,287.22l-1.15-1.15-1.15,1.15h2.31Z" style="fill:#000; stroke-width:0px;"/><path d="M261.89,237.8l-15.38,15.38h-27.19v-15.38h25v5.18l5.18-5.18h3.6l-8.79,8.79v5.18l13.97-13.97h3.6ZM221.45,245.49l-1.15-1.15v2.31l1.15-1.15ZM265.63,271.82h-17.68v-13.48s17.68,0,17.68,0v13.48ZM265.63,272.98v15.22s-17.68,0-17.68,0v-15.22s17.68,0,17.68,0ZM249.3,270.76c0-.15-.12-.28-.28-.28s-.28.12-.28.28.12.28.28.28.28-.12.28-.28ZM249.3,274.05c0-.15-.12-.28-.28-.28s-.28.12-.28.28.12.28.28.28.28-.12.28-.28ZM294.27,237.8v15.38h-25v-5.18l-5.18,5.18h-3.6l8.79-8.79v-5.18l-13.97,13.97h-3.6l15.38-15.38h27.19ZM264.84,270.76c0-.15-.12-.28-.28-.28s-.28.12-.28.28.12.28.28.28.28-.12.28-.28ZM264.84,274.05c0-.15-.12-.28-.28-.28s-.28.12-.28.28.12.28.28.28.28-.12.28-.28ZM293.29,244.33l-1.15,1.15,1.15,1.15v-2.31Z" style="fill:#000; stroke-width:0px;"/><path d="M349.27,253.18h-35.53v11.89h-17.68v-10.91l16.37-16.36h34.65v5.18l5.19-5.18h3.6l-8.79,8.79v5.18l13.97-13.97h3.6l-15.38,15.38ZM296.07,272.82h17.68v15.38h-17.68v-15.38ZM297.05,281.67l1.15-1.15-1.15-1.15v2.31ZM312.4,273.89c0,.15.12.28.28.28s.28-.12.28-.28-.12-.28-.28-.28-.28.12-.28.28ZM312.4,287.13c0,.15.12.28.28.28s.28-.12.28-.28-.12-.28-.28-.28-.28.12-.28.28ZM358.53,258.34l13.5,13.5v7.37c0,4.97-4.03,9-9,9h-48.13v-15.38h39.45v-14.48h4.18ZM316.25,273.89c0-.15-.12-.28-.28-.28s-.28.12-.28.28.12.28.28.28.28-.12.28-.28ZM316.25,287.13c0-.15-.12-.28-.28-.28s-.28.12-.28.28.12.28.28.28.28-.12.28-.28ZM331.25,273.93c-.17-.17-.46-.17-.63,0-.17.17-.17.46,0,.63.18.17.46.17.63,0s.17-.46,0-.63ZM332.42,276.04c0-.25-.2-.45-.45-.45s-.45.2-.45.45.2.45.45.45.45-.2.45-.45ZM333.33,273.93c-.17-.17-.46-.17-.63,0-.17.17-.17.46,0,.63s.46.17.63,0,.17-.46,0-.63ZM335.2,238.78h-2.31l1.15,1.15,1.15-1.15ZM334.49,276.04c0-.25-.2-.45-.45-.45s-.45.2-.45.45.2.45.45.45.45-.2.45-.45ZM335.4,273.93c-.18-.17-.46-.17-.63,0-.17.17-.17.46,0,.63s.46.17.63,0c.17-.17.17-.46,0-.63ZM336.57,276.04c0-.25-.2-.45-.45-.45s-.45.2-.45.45.2.45.45.45.45-.2.45-.45ZM337.48,273.93c-.18-.17-.46-.17-.63,0s-.17.46,0,.63.46.17.63,0c.17-.17.17-.46,0-.63ZM372.03,237.8v1.41l-13.97,13.97h-3.6l15.38-15.38h2.19ZM363.24,253.18l8.79-8.79v3.6l-5.18,5.18h-3.6Z" style="fill:#000; stroke-width:0px;"/><path d="M411.67,255.31l-15.38,15.38h-2.19v17.51h-17.68v-50.4h17.68v22.7l5.19-5.19h3.6l-8.79,8.79v5.18l13.97-13.97h3.6ZM386.41,238.78h-2.31l1.15,1.15,1.15-1.15ZM391.32,277.37c0-.25-.2-.45-.45-.45s-.45.2-.45.45.2.45.45.45.45-.2.45-.45ZM391.32,279.45c0-.25-.2-.45-.45-.45s-.45.2-.45.45.2.45.45.45.45-.2.45-.45ZM391.32,281.52c0-.25-.2-.45-.45-.45s-.45.2-.45.45.2.45.45.45.45-.2.45-.45ZM392.98,276.02c-.17-.17-.46-.17-.63,0-.17.18-.17.46,0,.63.17.17.46.17.63,0,.17-.17.17-.46,0-.63ZM392.98,278.09c-.17-.17-.46-.17-.63,0-.17.18-.17.46,0,.63.17.17.46.17.63,0,.17-.17.17-.46,0-.63ZM392.98,280.17c-.17-.17-.46-.17-.63,0-.17.17-.17.46,0,.63.17.17.46.17.63,0,.17-.17.17-.46,0-.63ZM392.98,282.24c-.17-.17-.46-.17-.63,0-.17.17-.17.46,0,.63.17.17.46.17.63,0,.17-.18.17-.46,0-.63ZM452.38,271.67v16.53h-17.68v-17.51h-16.36v-4.48l-4.48,4.48h-3.6l8.08-8.08v-5.18l-13.27,13.27h-3.6l15.38-15.38h1.48v-5.33l12.18-12.18h5.49v17.51l16.36,16.36ZM435.22,252.11c0-.15-.12-.28-.28-.28s-.28.12-.28.28.12.28.28.28.28-.12.28-.28ZM435.22,238.87c0-.15-.12-.28-.28-.28s-.28.12-.28.28.12.28.28.28.28-.12.28-.28ZM452.38,253.18h-15.21v-15.38h15.21v15.38ZM438.52,238.87c0-.15-.12-.28-.28-.28s-.28.12-.28.28.12.28.28.28.28-.12.28-.28ZM438.52,252.11c0-.15-.12-.28-.28-.28s-.28.12-.28.28.12.28.28.28.28-.12.28-.28ZM444.69,287.22l-1.15-1.15-1.15,1.15h2.31Z" style="fill:#000; stroke-width:0px;"/></svg>